<svg width="20" height="20" viewBox="0 0 20 20" fill="none" xmlns="http://www.w3.org/2000/svg">
<path d="M16.6667 2.5H3.33333C3.11232 2.5 2.90036 2.5878 2.74408 2.74408C2.5878 2.90036 2.5 3.11232 2.5 3.33333V16.6667C2.5 16.8877 2.5878 17.0996 2.74408 17.2559C2.90036 17.4122 3.11232 17.5 3.33333 17.5H10.5125V11.7H8.56417V9.42917H10.5125V7.7625C10.5125 5.825 11.6958 4.76917 13.4292 4.76917C14.0117 4.7675 14.595 4.7975 15.175 4.85833V6.875H13.9792C13.0392 6.875 12.8558 7.32333 12.8558 7.97917V9.425H15.1033L14.8117 11.6958H12.855V17.5H16.6667C16.8877 17.5 17.0996 17.4122 17.2559 17.2559C17.4122 17.0996 17.5 16.8877 17.5 16.6667V3.33333C17.5 3.11232 17.4122 2.90036 17.2559 2.74408C17.0996 2.5878 16.8877 2.5 16.6667 2.5V2.5Z" fill="white"/>
</svg>
